<?xml version="1.0" encoding="UTF-8"?>
<!DOCTYPE svg PUBLIC "-//W3C//DTD SVG 1.1//EN" "http://www.w3.org/Graphics/SVG/1.1/DTD/svg11.dtd">
<!-- Creator: CorelDRAW 2018 (64-Bit Evaluation Version) -->
<svg xmlns="http://www.w3.org/2000/svg" xml:space="preserve" width="236px" height="128px" version="1.1" style="shape-rendering:geometricPrecision; text-rendering:geometricPrecision; image-rendering:optimizeQuality; fill-rule:evenodd; clip-rule:evenodd"
viewBox="0 0 236 127.91"
 xmlns:xlink="http://www.w3.org/1999/xlink">
 <defs>
  <style type="text/css">
   <![CDATA[
    .fil0 {fill:#AB8059}
    .fil1 {fill:#5C412D;fill-rule:nonzero}
   ]]>
  </style>
 </defs>
 <g id="Camada_x0020_1">
  <metadata id="CorelCorpID_0Corel-Layer"/>
  <g id="_2269031788304">
   <path class="fil0" d="M6.09 117c5.63,6.58 16.94,11.93 29.43,8.74 5.24,-1.33 9.38,-3.9 13.5,-6.42 4.1,-2.5 8.35,-5.57 14.16,-5.64 -0.52,0.65 -2.33,0.57 -3.32,0.89 -4.57,1.43 -8.11,4.81 -12.17,7.3 -4.15,2.54 -8.44,4.62 -13.94,5.53 -12.44,2.06 -22.55,-2.66 -27.66,-10.4zm150.52 -77.72c1.68,-1.74 2.87,-3.98 3.26,-6.37 0.03,-0.23 0.15,-1.46 -0.15,-0.65 -0.2,0.55 -0.43,1.09 -0.69,1.61 -0.55,1.11 -1.23,2.16 -2.04,3.1 -5.11,5.92 -11.45,6.91 -13.99,7.16 4.78,-0.05 10.24,-1.35 13.61,-4.85zm23.96 -7.36c0,-0.01 -0.01,-0.01 -0.01,-0.02 -0.01,-0.01 -0.02,-0.01 -0.02,-0.02 0,0.01 0.01,0.01 0.02,0.02 0,0.01 0.01,0.01 0.01,0.02 0.01,0 0.01,0.01 0.02,0.01 -0.01,0 -0.01,-0.01 -0.02,-0.01zm-27.81 -3.67c-0.45,0.7 -0.95,1.38 -1.49,2.02 -0.96,-0.4 -1.81,-1.03 -2.45,-1.86 0.25,1.02 1.11,1.86 2.09,2.27 -1.28,1.4 -2.78,2.59 -4.52,3.39 -0.17,0.08 -0.34,0.15 -0.51,0.22 1.79,0.93 6.13,-1.02 7.94,-3.06 1.77,-0.04 3.52,-0.76 4.79,-2.2 -0.03,-0.03 -0.05,-0.05 -0.08,-0.07 -1.19,1.2 -2.77,1.8 -4.35,1.85 2.51,-2.99 4.1,-6.8 4.27,-10.65 4.47,1.74 7.37,6.11 7.41,10.88 0.05,4.85 -2.79,9.42 -7.14,11.55 -8.05,3.93 -15.39,3.03 -18.18,2.87 0.7,0.12 1.4,0.22 2.11,0.3 5.29,0.56 10.68,-0.2 15.6,-2.2 4.2,-1.71 7.32,-5.46 8.22,-9.89 0.52,-0.66 1.1,-1.27 1.73,-1.84 2.25,-2.01 5.82,-2.6 9,-1.49 2.71,0.95 4.81,3.03 5.52,5.47 -2.06,1.42 -4.18,2.71 -6.58,3.46 -0.31,0.1 -0.71,0.16 -1.12,0.22 -0.54,-1.74 0.23,-3.73 2.14,-4.5 -0.01,-0.01 -0.02,-0.03 -0.03,-0.05 -2.09,0.69 -3.01,2.71 -2.47,4.6 -0.78,0.1 -1.54,0.24 -1.84,0.62 0.69,-0.01 1.36,-0.06 2.01,-0.15 0.17,0.4 0.4,0.79 0.72,1.16 1.79,2.09 5.28,2.25 6.86,0.27 1.08,-1.34 1.44,-3.11 1.17,-4.83 1.17,-0.69 2.29,-1.42 3.4,-2.09 4.12,-2.53 8.26,-5.09 13.5,-6.42 12.49,-3.19 23.8,2.16 29.43,8.74 -5.11,-7.75 -15.22,-12.46 -27.66,-10.4 -5.5,0.91 -9.79,2.99 -13.94,5.53 -1.73,1.06 -3.36,2.28 -5.01,3.44 -0.16,-0.48 -0.37,-0.95 -0.63,-1.4 -0.23,-0.41 -0.51,-0.8 -0.81,-1.16 1.28,0.6 2.85,0.59 4.09,-0.14 1.79,-1.04 2.41,-3.47 1.29,-5.21 -1.1,-1.72 -3.94,-2.04 -5.06,-0.16 -1.02,1.72 0.82,4.75 2.76,3.17 -0.01,-0.02 -0.03,-0.04 -0.04,-0.07 -1.7,0.75 -3.03,-1.47 -1.9,-2.8 1.21,-1.49 3.58,-0.55 4.07,1.09 0.52,1.7 -0.53,3.42 -2.14,4 -0.8,0.29 -1.69,0.32 -2.51,0.1 -0.31,-0.08 -0.6,-0.2 -0.88,-0.34 -1.4,-1.51 -3.36,-2.57 -5.48,-3 -3.25,-0.66 -6.55,0.28 -8.59,2.39 -0.3,0.31 -0.58,0.63 -0.86,0.96 0.56,-3.98 -0.7,-8.08 -3.59,-10.92 -1.26,-1.24 -2.84,-2.21 -4.55,-2.82 -0.01,-0.02 0,-0.03 -0.01,-0.05 -0.14,-6.21 -4.34,-11.16 -10.05,-13.25 -0.54,-0.2 -1.1,-0.37 -1.67,-0.51 1.69,1.22 7.88,4.91 8.59,13.13 -1.63,-0.14 -4.4,0.66 -5.15,1.89 0.24,-0.15 0.49,-0.28 0.76,-0.39 1.34,-0.57 2.92,-0.69 4.44,-0.51 0.04,3.07 -0.91,6.18 -2.62,8.84zm30.19 8.73c-2.34,1.34 -4.85,2.52 -7.75,2.98 0.37,0.79 1.04,1.5 2.01,1.97 1.53,0.74 3.37,0.51 4.44,-0.57 1.05,-1.05 1.41,-2.74 1.31,-4.19 0,-0.06 -0.01,-0.13 -0.01,-0.19zm42.98 22.1c2.62,-0.67 4.01,-1.85 3.76,-5.31 -0.4,-5.68 -4.19,-9.37 -8.63,-11.84 -4.62,-2.58 -10.43,-3.92 -16.6,-3.76 9.8,-0.87 19.48,2.7 24.02,8.74 1.8,2.41 4.54,7.27 2.43,10.84 -0.77,1.31 -2.78,1.98 -4.98,1.33zm-85.66 -37.76c-1.9,-2.18 -5.73,-2.99 -5.73,-2.99 0,0 -0.74,-3.26 -2.53,-4.05 -3.23,-1.42 -6.23,2.85 -6.23,2.85 0,0 -2.98,-4.48 -8.96,-4.55 -5.98,-0.07 -9.71,4.79 -9.71,4.79 0,0 -2.23,-2.74 -4.26,-2.13 -2.21,0.66 -2.14,3.67 -2.14,3.67 0,0 -3.06,0.19 -5.07,2.84 -2.01,2.65 0.08,6.71 0.08,6.71 0,0 -2,-1.1 -2.96,-3.61 -1.06,-2.76 -0.65,-5.1 1.37,-6.58 2.58,-1.89 5.54,-0.65 5.54,-0.65 0,-0.01 -0.63,-3.5 2.72,-4.27 2.76,-0.64 4.54,1.55 4.54,1.55 0,-0.01 2.98,-6.17 9.84,-6.11 6.3,0.05 9.25,4.98 9.25,4.98 0,0 2.79,-3.92 6.68,-2.42 2.94,1.13 3.12,4.48 3.12,4.48 0,0 5.3,-0.16 6.9,3.13 2.4,4.92 -2.06,9.65 -2.06,9.65 0,0 2.13,-4.4 -0.39,-7.29zm-30.42 -10.21c0,0 -0.87,0.55 -1.78,1.73 -0.77,0.99 -1.1,1.66 -1.1,1.66 0,0 -0.39,-0.33 -1.23,-0.85 -0.83,-0.53 -1.66,-0.57 -1.66,-0.57 0,0 -0.71,-2.52 0.79,-3.41 1.49,-0.89 2.19,0.46 2.82,0.59 0.64,0.14 1.51,-0.36 2.16,0.85zm-2.26 -1.23c0,0 1.71,-2.94 1.49,-5.18 -0.22,-2.23 -1.84,-3.13 -1.84,-3.13l1.11 -0.5c0,0 0.98,0.03 1.4,2.94 0.43,2.92 -1.72,6.01 -1.72,6.01 -0.34,0.05 -0.44,-0.14 -0.44,-0.14zm19.42 2.34c-0.77,0.61 -1.12,0.99 -1.12,0.99 0,0 -0.41,-0.63 -1.28,-1.52 -1.04,-1.07 -1.97,-1.51 -1.97,-1.51 0.5,-1.27 1.42,-0.88 2.04,-1.09 0.61,-0.21 1.14,-1.64 2.73,-0.92 1.59,0.71 1.28,2.94 1.28,2.94 0,0 -0.91,0.49 -1.68,1.11zm-2.7 -3.34c0,0 -2.49,-2.82 -2.41,-5.76 0.08,-2.94 1.05,-3.09 1.05,-3.09l1.16 0.37c0,0 -1.5,1.08 -1.46,3.33 0.04,2.24 2.08,4.96 2.08,4.96 0,0 -0.07,0.2 -0.42,0.19zm-24.68 6.52c-0.45,1.05 -0.22,1.96 -0.22,1.96 0,0 -0.88,-0.31 -1.72,-0.38 -0.8,-0.06 -1.79,0.1 -1.79,0.1 0,0 -1.27,-3.17 0.06,-4.3 1.34,-1.12 2.24,0.1 2.89,0.14 0.65,0.03 1.43,-0.46 2.26,0.63 0,0 -0.9,0.52 -1.48,1.85zm-1.01 -2.7c0,0 0.57,-1.39 0.58,-2.92 0.02,-1.21 -0.18,-2.84 -1.89,-2.89 -1.72,-0.06 -1.74,1.44 -1.74,1.44l-1.09 0.31c0,0 -0.26,-0.8 0.64,-1.73 0.9,-0.92 3.59,-1.32 4.42,0.79 0.83,2.1 -0.52,5.11 -0.52,5.11 -0.32,0.11 -0.4,-0.11 -0.4,-0.11zm37.76 -1.06c0.59,-0.05 1.38,-1.19 2.61,-0.19 1.23,0.99 0,4.54 0,4.54 0,0 -0.79,-0.28 -1.51,-0.32 -0.64,-0.04 -0.78,-0.09 -1.46,-0.08 0,0 0.02,-0.74 -0.41,-1.7 -0.55,-1.2 -1.1,-1.78 -1.1,-1.78 0.73,-1.02 1.29,-0.43 1.87,-0.47zm2.86 -4.27c0,0 -0.05,-1.36 -1.6,-1.28 -1.55,0.09 -1.69,1.58 -1.65,2.69 0.05,1.4 0.6,2.66 0.6,2.66 0,0 -0.07,0.2 -0.36,0.1 0,0 -1.29,-2.71 -0.59,-4.65 0.7,-1.94 3.14,-1.64 3.98,-0.82 0.83,0.82 0.61,1.56 0.61,1.56l-0.99 -0.26zm-22.92 34.54c-15.9,-0.09 -20.75,-2.8 -20.75,-2.8 0,0 1.7,-4.1 1.05,-8.91 -0.64,-4.81 -3.58,-9.26 8.16,-11.92 13.68,-3.1 29.75,-0.68 33.6,3.07 3.85,3.75 1.26,7.71 0.57,10.64 -0.69,2.92 0.07,5.1 0.07,5.1 0,0 -1.04,-1.15 -1.38,-4.79 -0.28,-3.06 1.66,-7.47 -2.61,-9.89 -4.26,-2.43 -18.27,-2.97 -25.84,-1.56 -7.56,1.41 -10.45,3.05 -9.97,7.27 0.66,5.83 -0.9,9.64 -0.9,9.64 0,0 4.71,2.57 18.27,2.69 11.1,0.09 22.59,-1.9 22.59,-1.9 0,0 -6.67,3.45 -22.86,3.36zm20.79 -5.96c-0.58,0.66 -1.64,0.13 -1.27,-1.81 0.41,-2.12 -0.53,-1.89 -1.04,-1.3 -0.5,0.59 -0.94,0.45 -1.31,0.24 -0.36,-0.22 -2.25,-0.93 -1.97,-0.19 0.61,1.59 0.35,3.01 -0.55,2.77 -0.8,-0.2 -0.3,-1.23 -0.6,-1.74 -0.3,-0.5 0.15,0.36 -0.28,0.73 -0.44,0.37 -1.53,0.24 -1.26,-1.07 0.33,-1.56 -0.9,-2.4 -2.13,-1.51 -1.23,0.89 -1.3,1.48 -2.82,1.94 -1.53,0.45 -2.11,0.64 -1.66,1.55 0.75,1.52 0.06,3.1 -0.7,2.41 -1.03,-0.93 0.05,-2.26 -0.4,-2.91 -0.45,-0.65 -0.73,-0.35 -0.58,0.45 0.16,0.8 -0.82,2.51 -1.66,1.33 -1.19,-1.66 0.62,-3.14 -0.48,-3.35 -1.1,-0.2 -0.93,1.11 -1.88,1.41 -0.94,0.31 -0.65,0.08 -1.03,-0.79 -0.38,-0.87 -1.39,-0.34 -2.33,-0.11 -0.95,0.23 -2.71,-0.33 -4.47,-1.26 -1.76,-0.92 -3.24,-0.48 -2.84,0.41 0.75,1.66 0.85,4.25 -0.24,3.64 -1.03,-0.57 -0.32,-1.52 -0.47,-2.18 -0.16,-0.65 -0.96,-0.72 -0.64,0.96 0.1,0.58 -1.16,1.03 -1.24,0.02 -0.09,-1.03 -0.25,-2.41 -1.42,-2.47 -1.17,-0.06 -1.24,0.53 -0.93,1.33 0.3,0.8 -1.15,1.25 -1.17,0.09 0,0 0.2,-1.61 0.11,-3.21 -0.1,-1.61 -0.1,-2.05 -0.1,-2.05 0,0 1.47,1.23 5.55,0.81 1.55,-0.16 3.7,-1.29 6.77,-1.11 1.76,0.1 4.68,1.25 4.68,1.25 0,0 1.09,-0.74 2.4,-0.76 1.31,-0.02 2.42,0.85 2.42,0.85 0,0 1.55,0.87 5.24,-0.87 2.54,-1.2 5.24,-1.09 6.56,-0.53 1.46,0.63 1.76,1.15 1.76,1.15l1.82 -0.76c0,0 -0.43,1.18 -0.11,3 0.31,1.82 0.78,3.05 0.27,3.64zm-56.3 3.33c-1.68,-1.74 -2.87,-3.98 -3.26,-6.37 -0.03,-0.23 -0.15,-1.46 0.15,-0.65 0.2,0.55 0.43,1.09 0.68,1.61 0.55,1.11 1.24,2.16 2.05,3.1 5.11,5.92 11.44,6.91 13.99,7.16 -4.78,-0.05 -10.24,-1.35 -13.61,-4.85zm-23.96 -7.36c0,-0.01 0.01,-0.01 0.01,-0.02 0.01,-0.01 0.01,-0.01 0.02,-0.02 -0.01,0.01 -0.01,0.01 -0.02,0.02 0,0.01 -0.01,0.01 -0.01,0.02 -0.01,0 -0.01,0.01 -0.02,0.01 0.01,0 0.01,-0.01 0.02,-0.01zm27.81 -3.67c0.45,0.7 0.95,1.38 1.49,2.02 0.96,-0.4 1.81,-1.03 2.45,-1.86 -0.25,1.02 -1.11,1.86 -2.09,2.27 1.27,1.4 2.78,2.59 4.52,3.39 0.17,0.08 0.34,0.15 0.51,0.22 -1.79,0.93 -6.13,-1.02 -7.94,-3.06 -1.77,-0.04 -3.52,-0.76 -4.79,-2.2 0.02,-0.03 0.05,-0.05 0.07,-0.07 1.2,1.2 2.77,1.8 4.35,1.85 -2.5,-2.99 -4.09,-6.8 -4.26,-10.65 -4.47,1.74 -7.37,6.11 -7.41,10.88 -0.05,4.85 2.79,9.42 7.14,11.55 8.05,3.93 15.39,3.03 18.17,2.87 -0.69,0.12 -1.4,0.22 -2.1,0.3 -5.29,0.56 -10.68,-0.2 -15.6,-2.2 -4.2,-1.71 -7.32,-5.46 -8.22,-9.89 -0.52,-0.66 -1.1,-1.27 -1.73,-1.84 -2.25,-2.01 -5.82,-2.6 -9.01,-1.49 -2.7,0.95 -4.8,3.03 -5.51,5.47 2.06,1.42 4.18,2.71 6.58,3.46 0.31,0.1 0.71,0.16 1.12,0.22 0.54,-1.74 -0.23,-3.73 -2.14,-4.5 0.01,-0.01 0.02,-0.03 0.03,-0.05 2.08,0.69 3.01,2.71 2.47,4.6 0.77,0.1 1.53,0.24 1.84,0.62 -0.69,-0.01 -1.36,-0.06 -2.01,-0.15 -0.17,0.4 -0.41,0.79 -0.72,1.16 -1.8,2.09 -5.28,2.25 -6.86,0.27 -1.08,-1.34 -1.44,-3.11 -1.17,-4.83 -1.17,-0.69 -2.29,-1.42 -3.4,-2.09 -4.12,-2.53 -8.26,-5.09 -13.5,-6.42 -12.49,-3.19 -23.8,2.16 -29.44,8.74 5.12,-7.75 15.22,-12.46 27.67,-10.4 5.5,0.91 9.79,2.99 13.94,5.53 1.73,1.06 3.36,2.28 5.01,3.44 0.16,-0.48 0.37,-0.95 0.63,-1.4 0.23,-0.41 0.51,-0.8 0.81,-1.16 -1.28,0.6 -2.85,0.59 -4.09,-0.14 -1.79,-1.04 -2.41,-3.47 -1.29,-5.21 1.1,-1.72 3.94,-2.04 5.06,-0.16 1.02,1.72 -0.82,4.75 -2.76,3.17 0.01,-0.02 0.03,-0.04 0.04,-0.07 1.7,0.75 3.02,-1.47 1.9,-2.8 -1.22,-1.49 -3.58,-0.55 -4.07,1.09 -0.52,1.7 0.53,3.42 2.14,4 0.8,0.29 1.69,0.32 2.51,0.1 0.31,-0.08 0.6,-0.2 0.88,-0.34 1.4,-1.51 3.35,-2.57 5.48,-3 3.25,-0.66 6.55,0.28 8.59,2.39 0.3,0.31 0.58,0.63 0.86,0.96 -0.56,-3.98 0.7,-8.08 3.59,-10.92 1.26,-1.24 2.84,-2.21 4.55,-2.82 0,-0.02 0,-0.03 0,-0.05 0.15,-6.21 4.35,-11.16 10.06,-13.25 0.54,-0.2 1.1,-0.37 1.66,-0.51 -1.68,1.22 -7.87,4.91 -8.58,13.13 1.62,-0.14 4.4,0.66 5.15,1.89 -0.24,-0.15 -0.49,-0.28 -0.76,-0.39 -1.34,-0.57 -2.92,-0.69 -4.44,-0.51 -0.05,3.07 0.91,6.18 2.62,8.84zm-30.19 8.73c2.34,1.34 4.85,2.52 7.75,2.98 -0.37,0.79 -1.04,1.5 -2.02,1.97 -1.52,0.74 -3.37,0.51 -4.43,-0.57 -1.05,-1.05 -1.41,-2.74 -1.32,-4.19 0.01,-0.06 0.02,-0.13 0.02,-0.19zm-42.98 22.1c-2.62,-0.67 -4.01,-1.85 -3.76,-5.31 0.4,-5.68 4.19,-9.37 8.63,-11.84 4.62,-2.58 10.42,-3.92 16.59,-3.76 -9.79,-0.87 -19.47,2.7 -24.01,8.74 -1.81,2.41 -4.54,7.27 -2.43,10.84 0.77,1.31 2.78,1.98 4.98,1.33zm33.41 -20.47c-2.6,-2.91 -7.85,-4.06 -12.94,-4.21 -10.85,-0.3 -19.74,3.18 -25.12,8.19 -2.8,2.61 -5.39,6.32 -5.42,11.29 -0.03,5.29 2.69,10.31 7.86,10.84 4.24,0.44 7.57,-1.73 7.74,-5.64 -0.68,4.01 -6.34,6.13 -10.29,3.87 -2.65,-1.51 -4.28,-5.62 -4.09,-9.29 0.2,-4.07 3.15,-7.68 5.64,-10.07 2.63,-2.53 5.93,-4.48 9.85,-5.98 7.59,-2.89 20.48,-3.36 26.77,1zm147.62 0c2.6,-2.91 7.84,-4.06 12.94,-4.21 10.85,-0.3 19.74,3.18 25.12,8.19 2.8,2.61 5.39,6.32 5.42,11.29 0.03,5.29 -2.7,10.31 -7.86,10.84 -4.24,0.44 -7.57,-1.73 -7.74,-5.64 0.68,4.01 6.34,6.13 10.29,3.87 2.65,-1.51 4.28,-5.62 4.09,-9.29 -0.2,-4.07 -3.15,-7.68 -5.64,-10.07 -2.63,-2.53 -5.93,-4.48 -9.85,-5.98 -7.59,-2.89 -20.48,-3.36 -26.77,1zm-1.32 76.62c0.63,0.39 1.32,0.91 2,1.22 7.04,3.17 17.45,2.67 25.11,-0.33 3.54,-1.39 6.52,-3.37 9.07,-5.65 2.71,-2.4 5.17,-5.49 5.87,-8.96 0.89,-4.41 -1.18,-9.25 -4.2,-10.84 -4.2,-2.22 -9.71,0.51 -9.96,4.42 -0.18,-3.53 2.35,-5.64 5.75,-5.97 6.21,-0.6 9.38,4.49 9.74,9.4 0.38,5.18 -1.83,9.03 -4.32,11.73 -3.42,3.72 -9.63,6.83 -15.82,8.19 -7.29,1.6 -18.88,1.73 -23.24,-3.21zm-108.43 4.32c-4.73,-2.61 -11.2,-5.07 -18.26,-3.77 -6.2,1.15 -10.33,5.31 -12.06,10.74 -0.39,-14.29 22.58,-14.58 30.32,-6.97zm-2.22 4.09c-2.49,-1.92 -6.09,-3.31 -10.18,-3.32 -4.19,-0.01 -7.82,1.72 -9.95,3.65 -0.26,0.23 -0.44,0.82 -0.89,0.67 2.67,-6.79 17.49,-7.01 21.02,-1zm25.1 -8.58c-2,0.31 -3.88,1.25 -4.96,2.27 1.41,1.28 1.26,4.21 0.11,5.64 7.38,4.84 25.6,4.87 32.98,0 -1.08,-1.49 -1.19,-4.53 0.22,-5.75 -1.2,-0.92 -3.06,-1.84 -5.03,-2.16 1.83,-0.37 4.73,1.26 5.36,1.83 1.63,-1.31 4.98,-0.73 6.09,0.67 0.49,-0.19 0.87,-0.4 1.32,-0.45 1.81,-0.19 2.92,1.03 4.54,1.22 0.95,0.3 1.59,2.79 3.32,2.32 1.05,-0.28 1.01,-2.23 -0.67,-2.1 2.01,-1.05 2.48,2.2 0.78,2.65 -2.47,0.66 -2.55,-2.18 -4.21,-2.32 0.2,0.9 0.12,2.88 -1.1,2.77 -1.26,-0.12 -1.2,-2.85 0.11,-3.21 -0.61,-0.89 -2.69,-0.96 -3.76,-0.44 0.95,1.22 1.1,4.71 -0.78,4.64 -1.95,-0.07 -1.29,-4.06 0,-4.75 -0.97,-1.13 -3.73,-1.49 -5.2,-0.56 1.38,1.36 1.15,4.47 -0.22,5.64 0.52,0.74 1.38,1.13 2.21,1.55 -0.98,0.18 -2.06,-0.51 -2.54,-1.21 -6.78,6.02 -26.75,6.06 -33.64,0.11 -0.83,0.5 -1.47,1.18 -2.77,1.22 0.84,-0.5 1.69,-0.98 2.33,-1.67 -1.37,-0.97 -1.67,-4.27 -0.33,-5.53 -1.22,-1.17 -4.07,-0.6 -5.09,0.33 1.1,0.83 1.97,4.74 0,4.87 -1.88,0.13 -1.86,-3.22 -0.89,-4.53 -0.8,-0.77 -2.87,-0.44 -3.65,0.11 1.05,0.6 1.48,3.36 0,3.43 -1.03,0.05 -1.32,-1.49 -0.99,-2.77 -1.29,-0.06 -1.64,1.82 -2.77,2.21 -1.39,0.48 -2.81,-0.1 -2.55,-2.1 0.41,-0.4 1.04,-0.81 1.77,-0.55 -1.23,-0.14 -1.88,1.82 -0.66,2.21 1.79,0.57 2.53,-2.35 3.65,-2.43 1.63,-0.06 2.02,-1.27 4.1,-1.11 0.45,0.04 0.92,0.15 1.32,0.45 1.26,-1.22 4.52,-2.1 6.2,-0.67 0.64,-0.55 3.49,-2.02 5.4,-1.83zm-5.18 7.47c0.97,-1.05 0.91,-4.06 -0.33,-4.76 -1.12,1.06 -1.01,4.05 0.33,4.76zm33.75 0c1.25,-0.85 1.54,-3.87 0.11,-4.76 -0.99,0.99 -1.23,3.74 -0.11,4.76zm-39.17 -0.55c0.7,-1.16 0.25,-3.31 -0.89,-3.65 -0.62,0.83 -1.21,4.37 0.89,3.65zm45.14 -3.65c-0.78,0.69 -1.4,2.6 -0.55,3.65 0.41,-0.08 0.48,0.19 0.89,0.11 0.72,-0.74 0.66,-3.4 -0.34,-3.76zm-50.01 2.87c0.92,-0.47 0.41,-2.07 -0.55,-2.21 -0.18,0.77 -0.28,2.12 0.55,2.21zm54.55 -2.21c-0.57,0.33 -1.34,2.01 -0.11,2.21 0.57,-0.3 0.79,-1.87 0.11,-2.21zm-41.05 0.7c8.38,1.51 18.84,1.53 27.22,0 -7.57,2.4 -19.47,2.21 -27.22,0.12 0,-0.04 0,-0.08 0,-0.12zm71.37 5.17c-3.6,-5.23 -16.06,-6.08 -20.91,-1.11 2.87,-6.06 18.94,-6.05 20.91,1.11zm-23.35 -5.2c7.47,-7.56 30.82,-7.69 30.54,6.86 -1.84,-5.44 -5.88,-9.56 -12.17,-10.74 -7.13,-1.33 -13.64,1.22 -18.37,3.88zm76.68 -2.44c-5.13,7.75 -15.49,12.25 -27.77,10.07 -5.62,-1 -9.58,-3.03 -13.83,-5.64 -3.72,-2.29 -7.88,-5.96 -12.28,-7.19 -0.98,-0.28 -2.66,-0.12 -3.1,-0.78 5.79,0.06 10,3.05 14.05,5.53 4.13,2.54 8.22,5.06 13.5,6.42 12.48,3.22 23.8,-1.9 29.43,-8.41zm-25.22 -1.44c6.23,-0.12 12.19,-1.27 17.03,-4.09 4.21,-2.45 8.49,-6.67 8.19,-12.84 -0.11,-2.41 -1.51,-3.68 -3.87,-3.98 3.51,-1.33 5.92,0.92 5.65,4.87 -0.4,5.54 -4.39,9.86 -9.3,12.39 -5.24,2.7 -11.46,4.23 -17.7,3.65zm-159.68 -0.55c-2.6,2.91 -7.85,4.06 -12.94,4.2 -10.85,0.31 -19.74,-3.17 -25.12,-8.18 -2.8,-2.62 -5.39,-6.32 -5.42,-11.29 -0.03,-5.29 2.7,-10.31 7.86,-10.84 4.24,-0.44 7.57,1.73 7.74,5.64 -0.68,-4.01 -6.34,-6.13 -10.29,-3.87 -2.65,1.51 -4.28,5.62 -4.09,9.29 0.2,4.07 3.15,7.68 5.64,10.07 2.63,2.53 5.93,4.48 9.85,5.98 7.59,2.89 20.48,3.36 26.77,-1zm-33.41 -20.47c-2.62,0.66 -4.01,1.85 -3.76,5.31 0.4,5.68 4.19,9.37 8.63,11.84 4.62,2.57 10.43,3.92 16.59,3.76 -9.79,0.87 -19.47,-2.7 -24.01,-8.74 -1.81,-2.41 -4.54,-7.27 -2.43,-10.84 0.77,-1.31 2.78,-1.98 4.98,-1.33z"/>
   <path class="fil1" d="M125.12 77.62c-1.07,1.81 -1.92,3.4 -2.53,4.76 -0.63,1.36 -0.94,2.3 -0.94,2.79 0,0.37 0.15,0.67 0.48,0.89 0.31,0.23 0.74,0.34 1.25,0.34 1.19,0 2.27,-0.53 3.26,-1.57 1,-1.05 1.84,-2.56 2.51,-4.52 -1.15,-0.24 -2.11,-0.61 -2.89,-1.1 -0.76,-0.49 -1.14,-1 -1.14,-1.53l0 -0.06zm30.12 -1.3c2.27,-0.73 4.18,-1.72 5.73,-2.97 1.55,-1.24 2.32,-2.33 2.32,-3.26 0,-0.46 -0.22,-0.82 -0.68,-1.06 -0.46,-0.24 -1.13,-0.36 -2,-0.36 -1.81,0 -3.42,0.52 -4.82,1.58 -1.4,1.05 -2.09,2.27 -2.09,3.66 0,0.53 0.12,0.99 0.36,1.37 0.24,0.38 0.63,0.73 1.18,1.04zm14.99 1.63c1.38,-0.69 2.58,-1.96 3.62,-3.81l2.75 -4.81 -3.17 0c-0.48,0 -0.81,-0.03 -0.99,-0.09 -0.16,-0.06 -0.25,-0.16 -0.25,-0.31 0,-0.03 0,-0.05 0.01,-0.09 0.01,-0.03 0.05,-0.09 0.12,-0.19l0.53 -0.77c0.12,-0.21 0.34,-0.35 0.67,-0.43 0.31,-0.07 0.94,-0.11 1.88,-0.11l2.42 0 3.21 -5.25c0.18,-0.28 0.38,-0.67 0.63,-1.16 0.67,-1.41 2.02,-2.11 4.06,-2.11 1.44,0 2.56,0.09 3.38,0.27 0.8,0.18 1.2,0.43 1.2,0.75 0,0.22 -0.24,0.63 -0.75,1.25 -0.27,0.32 -0.45,0.58 -0.59,0.78l-3.77 5.47 5.5 0c0.43,0 0.74,0.03 0.97,0.09 0.21,0.06 0.32,0.15 0.32,0.28 0,0.06 0,0.11 -0.01,0.15 -0.01,0.04 -0.03,0.08 -0.06,0.13l-0.56 0.78c-0.13,0.2 -0.37,0.34 -0.71,0.43 -0.36,0.08 -0.96,0.13 -1.85,0.13l-4.81 0 -3.21 5.23c-0.38,0.58 -0.64,1.09 -0.82,1.51 -0.17,0.43 -0.26,0.78 -0.26,1.05 0,0.61 0.59,1.09 1.77,1.44 1.18,0.34 2.94,0.55 5.28,0.61l-1.29 2.19 -0.78 0c-2.91,0 -5.34,-0.17 -7.31,-0.51 -1.96,-0.34 -3.38,-0.83 -4.26,-1.48 -5.06,2.16 -11.04,2.37 -16.41,1.59 -1.86,-0.26 -3.47,-0.67 -4.83,-1.22 -5.45,2.68 -10.9,3.48 -17.52,1.49 -0.39,2.41 -1.79,4.36 -4.19,5.87 -2.41,1.5 -5.28,2.25 -8.63,2.25 -2.09,0 -3.69,-0.32 -4.79,-0.94 -1.11,-0.63 -1.66,-1.55 -1.66,-2.73 0,-0.65 0.17,-1.4 0.51,-2.26 0.34,-0.85 0.89,-1.89 1.65,-3.11 -0.94,0.32 -1.92,0.57 -2.94,0.74 -3.29,0.57 -8.48,0.4 -11.3,-0.4 -1.66,-0.48 -2.5,-1.22 -2.5,-2.23 0,-0.47 0.31,-1.18 0.95,-2.14 0.63,-0.96 1.6,-2.19 2.88,-3.67l0.26 -0.31c1.12,-1.24 1.68,-1.98 1.68,-2.2 0,-0.19 -0.09,-0.32 -0.28,-0.41 -0.18,-0.08 -0.47,-0.13 -0.86,-0.13 -1.3,0 -3.29,0.81 -5.99,2.43 -2.69,1.62 -5.06,3.58 -7.09,5.89 -0.41,0.46 -0.86,1.03 -1.34,1.7 -0.91,1.23 -2.7,1.85 -5.36,1.85 -0.88,0 -1.49,-0.04 -1.84,-0.12 -0.35,-0.09 -0.52,-0.23 -0.52,-0.44 0,-0.1 0.05,-0.24 0.17,-0.42 0.13,-0.18 0.32,-0.41 0.57,-0.67 -5.18,1.24 -7.41,0.27 -9.1,0.71 -2.47,0.65 -5.09,0.94 -5.69,0.94 -1.55,0 -2.89,-0.1 -4.04,-0.3 -1.15,-0.2 -2.13,-0.51 -2.94,-0.92 -3.66,-2.2 -6.27,-0.12 -9.64,2.5 -5.32,4.13 -10.07,6.27 -16.93,6.27 -3.76,0 -6.71,-0.65 -8.88,-1.94 -2.16,-1.31 -3.24,-3.09 -3.24,-5.37 0,-2.67 1.39,-5.69 4.2,-9.09 2.81,-3.38 6.55,-6.5 11.23,-9.35 3.71,-2.28 7.54,-4.06 11.47,-5.34 3.95,-1.28 7.53,-1.92 10.74,-1.92 2.61,0 4.65,0.37 6.09,1.11 1.44,0.74 2.16,1.8 2.16,3.17 0,1.21 -0.58,2.36 -1.73,3.47 -1.16,1.11 -2.84,2.12 -5.05,3.05 -1.26,0.52 -2.63,0.95 -4.08,1.31 -1.46,0.34 -2.58,0.52 -3.38,0.52 -0.6,0 -1.25,-0.23 -1.92,-0.7 -0.68,-0.47 -1.02,-0.89 -1.02,-1.25 0,-0.28 0.7,-0.54 2.08,-0.79 1.39,-0.25 2.55,-0.52 3.49,-0.8 1.84,-0.55 3.24,-1.23 4.23,-2.02 0.98,-0.8 1.47,-1.65 1.47,-2.55 0,-0.62 -0.24,-1.09 -0.73,-1.4 -0.5,-0.31 -1.23,-0.47 -2.22,-0.47 -1.88,0 -4.15,0.57 -6.82,1.72 -2.66,1.14 -5.44,2.74 -8.35,4.79 -4.24,3.01 -7.54,5.98 -9.89,8.92 -2.35,2.94 -3.52,5.52 -3.52,7.74 0,1.17 0.43,2.05 1.26,2.63 0.84,0.59 2.1,0.89 3.76,0.89 2.2,0 4.49,-0.41 6.85,-1.22 2.36,-0.82 4.71,-2.06 7.12,-3.62 4.36,-2.83 7.48,-2.97 8.82,-2.03 -0.26,-0.35 -0.46,-0.73 -0.58,-1.12 -0.14,-0.39 -0.2,-0.81 -0.2,-1.26 0,-1.19 0.49,-2.43 1.48,-3.71 1,-1.29 2.36,-2.43 4.09,-3.42 1.5,-0.89 3.31,-1.61 5.41,-2.15 2.1,-0.55 4.05,-0.83 5.87,-0.83 0.48,0 0.85,0.05 1.13,0.15 0.27,0.1 0.4,0.24 0.4,0.42 0,0.23 -0.53,0.61 -1.59,1.12 -1.06,0.51 -1.86,0.94 -2.44,1.29 -2.24,1.39 -3.98,2.8 -5.17,4.23 -1.2,1.43 -1.8,2.77 -1.8,4.02 0,0.6 0.27,1.06 0.8,1.39 0.54,0.34 1.28,0.5 2.22,0.5 2.24,0 4.44,-0.79 6.58,-2.38 2.15,-1.59 3.26,-3.39 3.35,-5.4 -1.1,-0.08 -1.94,-0.29 -2.51,-0.6 -0.57,-0.31 -0.85,-0.73 -0.85,-1.26 0,-0.76 0.44,-1.4 1.31,-1.9 0.88,-0.5 1.99,-0.75 3.32,-0.75 1.47,0 2.61,0.29 3.41,0.87 0.82,0.59 1.22,1.4 1.22,2.45 0,1.3 -0.43,2.63 -1.26,3.99 -0.84,1.35 -2.03,2.59 -3.56,3.73 -0.66,0.49 -1.33,0.93 -2.03,1.32 1.94,-0.15 3.61,-0.67 5,-1.56 1.6,-1.02 3.04,-2.67 4.35,-4.93 0.64,-1.09 1.29,-2.39 1.97,-3.89 0.87,-2.01 2.25,-3.01 4.15,-3.01 1.72,0 2.94,0.05 3.65,0.14 0.73,0.1 1.09,0.27 1.09,0.52 0,0.19 -0.68,1.11 -2.04,2.78 -1.35,1.66 -2.55,3.27 -3.6,4.82 3.41,-2.73 6.53,-4.72 9.36,-5.98 2.83,-1.25 5.59,-1.88 8.3,-1.88 1.37,0 2.45,0.18 3.21,0.54 0.77,0.36 1.15,0.87 1.15,1.51 0,0.74 -1.26,2.65 -3.79,5.75l-0.82 1.01c-0.55,0.66 -0.97,1.28 -1.29,1.84 -0.32,0.57 -0.47,0.97 -0.47,1.21 0,0.4 0.3,0.68 0.91,0.84 4.7,1.29 9.2,-1.08 11.58,-5.16 0.32,-0.55 0.58,-0.98 0.75,-1.28 3.59,-5.91 6.96,-10.1 10.11,-12.57 3.15,-2.46 6.63,-3.7 10.42,-3.7 2.2,0 3.92,0.36 5.11,1.08 1.2,0.72 1.8,1.77 1.8,3.13 0,2.31 -1.8,4.93 -5.41,7.86 -3.61,2.94 -8.34,5.5 -14.19,7.68 1.28,0.26 2.31,0.63 3.06,1.13 0.76,0.5 1.33,1.17 1.72,2.03 5.36,1.97 11.07,1.32 14.06,-0.8 -0.82,-0.54 -1.43,-1.15 -1.82,-1.84 -0.39,-0.69 -0.59,-1.51 -0.59,-2.43 0,-2.16 1.49,-4.04 4.47,-5.63 2.99,-1.6 6.51,-2.4 10.57,-2.4 2.27,0 4.07,0.34 5.39,1.01 1.32,0.67 1.98,1.6 1.98,2.76 0,1.27 -0.95,2.68 -2.84,4.22 -1.89,1.53 -4.41,2.89 -7.56,4.07 3.35,1.53 9.17,1.58 12.37,-0.06zm26.11 -1.1c1.24,0 2.23,0.19 2.94,0.56 0.73,0.38 1.09,0.89 1.09,1.54 0,0.74 -0.44,1.34 -1.31,1.8 -0.87,0.45 -2.03,0.68 -3.47,0.68 -1.33,0 -2.37,-0.18 -3.14,-0.56 -0.76,-0.36 -1.14,-0.87 -1.14,-1.54 0,-0.76 0.45,-1.37 1.34,-1.81 0.9,-0.45 2.13,-0.67 3.69,-0.67zm6.58 -3.81c-0.42,0.52 -0.79,0.86 -1.13,1.04 -0.34,0.17 -0.82,0.26 -1.42,0.26 -0.95,0 -1.74,-0.11 -2.35,-0.32 -0.63,-0.2 -0.94,-0.46 -0.94,-0.77 0,-0.14 0.02,-0.3 0.08,-0.48 0.05,-0.18 0.17,-0.41 0.31,-0.68l7.19 -13.68c0.37,-0.73 0.77,-1.21 1.21,-1.43 0.43,-0.23 1.06,-0.35 1.87,-0.35 1.37,0 2.78,0.2 4.22,0.58 1.45,0.38 2.16,0.79 2.16,1.24 0,0.2 -0.06,0.43 -0.18,0.68 -0.12,0.25 -0.31,0.52 -0.57,0.81l-10.45 13.1zm-75.76 1.3c2.25,-1.07 4.37,-2.3 6.37,-3.71 2.01,-1.42 3.93,-3.03 5.79,-4.85 1.2,-1.19 2.17,-2.34 2.94,-3.46 0.75,-1.11 1.13,-1.89 1.13,-2.32 0,-0.35 -0.17,-0.62 -0.51,-0.82 -0.34,-0.19 -0.81,-0.29 -1.43,-0.29 -1.58,0 -3.45,1.17 -5.64,3.51 -2.19,2.34 -5.07,6.32 -8.65,11.94z"/>
   <polygon class="fil1" points="51.96,95.37 40.21,95.37 40.21,96.68 51.96,96.68 "/>
   <polygon class="fil1" points="197.32,95.37 185.58,95.37 185.58,96.68 197.32,96.68 "/>
   <g>
    <path class="fil1" d="M55.85 96.57c0,0.73 0,1.35 -0.04,1.69 -0.04,0.23 -0.08,0.4 -0.23,0.43 -0.08,0.02 -0.17,0.03 -0.29,0.03 -0.09,0 -0.13,0.03 -0.13,0.07 0,0.05 0.06,0.08 0.16,0.08 0.16,0 0.37,-0.02 0.55,-0.02 0.19,-0.01 0.36,-0.01 0.45,-0.01 0.2,0 0.48,0.03 0.78,0.05 0.3,0.02 0.62,0.05 0.91,0.05 1.46,0 2.29,-0.57 2.65,-0.94 0.45,-0.45 0.87,-1.21 0.87,-2.21 0,-0.94 -0.38,-1.6 -0.77,-2.01 -0.87,-0.9 -2.19,-0.9 -3.18,-0.9 -0.48,0 -0.97,0.02 -1.22,0.02 -0.22,0 -0.72,-0.02 -1.14,-0.02 -0.12,0 -0.17,0.01 -0.17,0.07 0,0.05 0.04,0.07 0.13,0.07 0.11,0 0.25,0.01 0.31,0.02 0.26,0.06 0.32,0.18 0.34,0.45 0.02,0.26 0.02,0.48 0.02,1.68l0 1.4zm0.99 -1.52c0,-0.63 0,-1.32 0,-1.59 0,-0.09 0.03,-0.12 0.1,-0.16 0.06,-0.03 0.35,-0.05 0.51,-0.05 0.62,0 1.53,0.09 2.25,0.79 0.34,0.33 0.76,0.97 0.76,1.98 0,0.82 -0.15,1.54 -0.66,1.97 -0.48,0.42 -1.01,0.57 -1.82,0.57 -0.63,0 -0.94,-0.16 -1.04,-0.31 -0.06,-0.09 -0.08,-0.41 -0.09,-0.6 -0.01,-0.15 -0.01,-0.76 -0.01,-1.61l0 -0.99zm10.46 3.9c1.8,0 2.93,-1.21 2.93,-2.75 0,-1.55 -1.1,-2.52 -2.86,-2.52 -2.11,0 -2.92,1.49 -2.92,2.63 0,1.2 0.82,2.64 2.85,2.64zm0.29 -0.36c-1.32,0 -2.11,-1.09 -2.11,-2.48 0,-1.67 0.91,-2.08 1.69,-2.08 1.12,0 2.02,0.92 2.02,2.41 0,1.92 -1.11,2.15 -1.6,2.15zm8.78 0.36c0.46,0 0.99,-0.04 1.26,-0.15 0.12,-0.05 0.15,-0.08 0.19,-0.2 0.07,-0.23 0.15,-0.81 0.15,-0.89 0,-0.06 -0.04,-0.12 -0.08,-0.12 -0.06,0 -0.07,0.03 -0.09,0.14 -0.02,0.12 -0.12,0.31 -0.24,0.45 -0.27,0.31 -0.62,0.35 -1.23,0.35 -0.94,0 -2.18,-0.76 -2.18,-2.36 0,-0.66 0.13,-1.31 0.65,-1.75 0.31,-0.27 0.7,-0.38 1.31,-0.38 0.64,0 1.11,0.17 1.35,0.4 0.17,0.17 0.26,0.41 0.27,0.62 0,0.09 0.01,0.14 0.07,0.14 0.06,0 0.09,-0.07 0.1,-0.16 0,-0.14 0,-0.51 0.02,-0.73 0.01,-0.24 0.03,-0.32 0.03,-0.37 0,-0.04 -0.02,-0.07 -0.1,-0.08 -0.21,-0.03 -0.44,-0.07 -0.7,-0.11 -0.32,-0.04 -0.58,-0.07 -1.01,-0.07 -1.04,0 -1.71,0.27 -2.21,0.71 -0.67,0.59 -0.82,1.39 -0.82,1.84 0,0.66 0.18,1.42 0.87,1.99 0.63,0.53 1.44,0.73 2.39,0.73zm5.19 -2.04c0,0.62 0,1.15 -0.03,1.43 -0.02,0.2 -0.06,0.33 -0.2,0.36 -0.07,0.02 -0.15,0.02 -0.25,0.02 -0.09,0 -0.11,0.04 -0.11,0.07 0,0.05 0.05,0.08 0.13,0.08 0.15,0 0.32,-0.01 0.49,-0.02 0.16,0 0.31,-0.01 0.39,-0.01 0.21,0 0.47,0.01 0.81,0.02 0.34,0.01 0.76,0.02 1.28,0.02 0.27,0 0.33,0 0.38,-0.17 0.04,-0.14 0.09,-0.6 0.09,-0.75 0,-0.07 -0.01,-0.16 -0.06,-0.16 -0.05,0 -0.07,0.03 -0.08,0.11 -0.05,0.27 -0.13,0.42 -0.3,0.5 -0.18,0.08 -0.48,0.08 -0.66,0.08 -0.71,0 -0.93,-0.1 -0.94,-0.56 -0.01,-0.2 0,-0.77 0,-1l0 -0.54c0,-0.04 0.01,-0.07 0.04,-0.07 0.17,0 0.96,0.02 1.09,0.03 0.26,0.03 0.35,0.13 0.39,0.26 0.01,0.09 0.01,0.18 0.02,0.25 0,0.03 0.02,0.06 0.07,0.06 0.06,0 0.07,-0.1 0.07,-0.15 0,-0.05 0.01,-0.32 0.03,-0.46 0.04,-0.34 0.05,-0.45 0.05,-0.49 0,-0.04 -0.02,-0.07 -0.05,-0.07 -0.03,0 -0.06,0.04 -0.11,0.09 -0.07,0.06 -0.17,0.09 -0.33,0.1 -0.16,0.02 -1.07,0.02 -1.22,0.02 -0.04,0 -0.05,-0.03 -0.05,-0.07l0 -1.67c0,-0.04 0.01,-0.06 0.05,-0.06 0.14,0 0.97,0.01 1.09,0.03 0.35,0.03 0.4,0.13 0.46,0.25 0.04,0.08 0.05,0.19 0.05,0.24 0,0.06 0,0.09 0.05,0.09 0.06,0 0.07,-0.08 0.08,-0.11 0.02,-0.08 0.03,-0.37 0.04,-0.45 0.02,-0.3 0.06,-0.38 0.06,-0.43 0,-0.03 -0.01,-0.06 -0.05,-0.06 -0.03,0 -0.07,0.02 -0.11,0.03 -0.06,0.01 -0.17,0.03 -0.3,0.04 -0.13,0 -1.68,0 -1.9,0 -0.2,0 -0.64,-0.02 -1,-0.02 -0.11,0 -0.16,0.02 -0.16,0.06 0,0.05 0.05,0.08 0.12,0.08 0.1,0 0.22,0 0.27,0.02 0.23,0.06 0.29,0.13 0.3,0.36 0.01,0.22 0.01,0.41 0.01,1.43l0 1.19zm6.52 0c0,0.62 0,1.15 -0.04,1.43 -0.02,0.2 -0.06,0.33 -0.2,0.36 -0.07,0.02 -0.14,0.02 -0.25,0.02 -0.08,0 -0.11,0.04 -0.11,0.07 0,0.05 0.05,0.08 0.14,0.08 0.27,0 0.72,-0.03 0.85,-0.03 0.1,0 0.68,0.03 1.09,0.03 0.08,0 0.14,-0.03 0.14,-0.08 0,-0.03 -0.03,-0.07 -0.09,-0.07 -0.08,0 -0.24,0 -0.34,-0.02 -0.21,-0.03 -0.24,-0.16 -0.27,-0.36 -0.03,-0.28 -0.04,-0.81 -0.04,-1.43l0 -0.1c0,-0.04 0.03,-0.05 0.06,-0.05l0.62 0.01c0.05,0 0.09,0.01 0.13,0.05 0.09,0.1 0.38,0.56 0.66,0.92 0.39,0.52 0.65,0.84 0.95,0.99 0.18,0.1 0.37,0.14 0.76,0.14l0.67 0c0.08,0 0.13,-0.02 0.13,-0.08 0,-0.03 -0.03,-0.07 -0.09,-0.07 -0.05,0 -0.09,0 -0.16,-0.01 -0.11,-0.03 -0.36,-0.06 -0.75,-0.45 -0.42,-0.42 -0.91,-1.03 -1.53,-1.79 0.68,-0.54 0.97,-0.99 0.97,-1.49 0,-0.45 -0.29,-0.79 -0.49,-0.92 -0.37,-0.25 -0.88,-0.29 -1.32,-0.29 -0.22,0 -0.85,0.02 -1.09,0.02 -0.14,0 -0.59,-0.02 -0.95,-0.02 -0.1,0 -0.16,0.02 -0.16,0.06 0,0.05 0.05,0.08 0.12,0.08 0.1,0 0.22,0 0.28,0.02 0.22,0.06 0.28,0.13 0.3,0.36 0.01,0.22 0.01,0.41 0.01,1.43l0 1.19zm0.88 -2.67c0,-0.06 0.02,-0.08 0.07,-0.1 0.07,-0.01 0.23,-0.02 0.41,-0.02 0.41,0 1.06,0.25 1.06,1.2 0,0.55 -0.24,0.84 -0.45,0.99 -0.12,0.09 -0.22,0.11 -0.49,0.11 -0.18,0 -0.38,-0.01 -0.53,-0.06 -0.05,-0.02 -0.07,-0.05 -0.07,-0.12l0 -2zm6.66 2.67c0,0.65 0,1.19 -0.03,1.46 -0.03,0.2 -0.07,0.3 -0.21,0.33 -0.06,0.02 -0.14,0.02 -0.24,0.02 -0.09,0 -0.12,0.04 -0.12,0.07 0,0.05 0.05,0.08 0.14,0.08 0.28,0 0.75,-0.03 0.91,-0.03 0.19,0 0.67,0.03 1.12,0.03 0.08,0 0.14,-0.03 0.14,-0.08 0,-0.03 -0.03,-0.07 -0.11,-0.07 -0.1,0 -0.26,0 -0.36,-0.02 -0.2,-0.03 -0.25,-0.14 -0.28,-0.32 -0.03,-0.28 -0.03,-0.82 -0.03,-1.47l0 -1.19c0,-1.02 0,-1.21 0.02,-1.43 0.01,-0.23 0.07,-0.33 0.26,-0.36 0.08,-0.02 0.14,-0.02 0.21,-0.02 0.07,0 0.11,-0.02 0.11,-0.08 0,-0.04 -0.06,-0.06 -0.15,-0.06 -0.26,0 -0.72,0.02 -0.89,0.02 -0.2,0 -0.67,-0.02 -0.94,-0.02 -0.11,0 -0.16,0.02 -0.16,0.06 0,0.06 0.04,0.08 0.11,0.08 0.09,0 0.17,0 0.25,0.03 0.15,0.04 0.22,0.12 0.24,0.35 0.01,0.22 0.01,0.41 0.01,1.43l0 1.19zm7.57 -0.07c0.04,0 0.07,0.02 0.08,0.06l0.63 1.63c0.05,0.1 -0.01,0.17 -0.07,0.19 -0.07,0 -0.11,0.02 -0.11,0.07 0,0.05 0.1,0.05 0.24,0.06 0.63,0.02 1.21,0.02 1.5,0.02 0.29,0 0.36,-0.02 0.36,-0.08 0,-0.06 -0.04,-0.07 -0.1,-0.07 -0.1,0 -0.21,0 -0.33,-0.03 -0.17,-0.04 -0.4,-0.15 -0.7,-0.86 -0.51,-1.21 -1.78,-4.38 -1.97,-4.81 -0.07,-0.18 -0.12,-0.26 -0.19,-0.26 -0.08,0 -0.13,0.09 -0.23,0.32l-1.98 4.91c-0.16,0.4 -0.31,0.67 -0.68,0.72 -0.06,0.01 -0.17,0.01 -0.24,0.01 -0.07,0 -0.1,0.02 -0.1,0.07 0,0.06 0.05,0.08 0.15,0.08 0.41,0 0.85,-0.03 0.94,-0.03 0.24,0 0.58,0.03 0.84,0.03 0.08,0 0.13,-0.02 0.13,-0.08 0,-0.05 -0.02,-0.07 -0.12,-0.07l-0.12 0c-0.24,0 -0.31,-0.1 -0.31,-0.24 0,-0.1 0.04,-0.29 0.12,-0.49l0.42 -1.08c0.02,-0.05 0.04,-0.07 0.08,-0.07l1.76 0zm-1.61 -0.39c-0.03,0 -0.04,-0.03 -0.03,-0.06l0.73 -1.94c0.01,-0.03 0.02,-0.07 0.05,-0.07 0.02,0 0.03,0.04 0.04,0.07l0.71 1.95c0.01,0.02 0,0.05 -0.04,0.05l-1.46 0zm8.72 0.77c0,0.7 0.51,1.76 2.2,1.76 1.09,0 1.62,-0.49 1.88,-0.72 0.68,0.52 0.97,0.61 1.87,0.61l0.61 0c0.17,0 0.24,-0.03 0.24,-0.08 0,-0.06 -0.04,-0.07 -0.11,-0.07 -0.16,0 -0.6,-0.12 -0.85,-0.27 -0.22,-0.13 -0.57,-0.34 -1.1,-0.78 0.45,-0.53 0.77,-1.27 0.77,-1.88 0,-0.09 -0.12,-0.14 -0.27,-0.16 -0.44,-0.04 -0.76,-0.05 -0.95,-0.05 -0.06,0 -0.12,0.01 -0.12,0.08 0,0.04 0.04,0.06 0.09,0.06 0.12,0 0.29,0.02 0.39,0.12 0.12,0.1 0.15,0.25 0.15,0.36 0,0.49 -0.22,1 -0.38,1.22 -0.15,-0.13 -1.12,-1.01 -1.39,-1.32 -0.64,-0.71 -1.32,-1.34 -1.32,-2.08 0,-0.68 0.51,-0.91 0.85,-0.91 0.44,0 0.72,0.17 0.88,0.36 0.17,0.21 0.23,0.46 0.23,0.67 0,0.11 0.01,0.15 0.05,0.15 0.05,0 0.08,-0.02 0.1,-0.14 0.02,-0.12 0.09,-0.75 0.09,-1.01 0,-0.1 0,-0.16 -0.14,-0.21 -0.21,-0.09 -0.57,-0.17 -0.96,-0.17 -1.38,0 -1.93,0.84 -1.92,1.46 0,0.36 0.07,0.68 0.4,1.13 -0.48,0.23 -1.29,0.95 -1.29,1.87zm2.47 1.26c-0.82,0 -1.52,-0.64 -1.52,-1.63 0,-0.63 0.28,-1 0.55,-1.2 0.13,0.2 0.64,0.77 0.84,0.99 0.21,0.22 0.97,0.97 1.43,1.36 -0.17,0.16 -0.69,0.48 -1.3,0.48zm12.27 0.5c0.5,0 1.1,-0.06 1.42,-0.19 0.14,-0.05 0.17,-0.09 0.21,-0.23 0.08,-0.26 0.17,-0.95 0.17,-1.05 0,-0.06 -0.01,-0.12 -0.07,-0.12 -0.06,0 -0.08,0.03 -0.1,0.16 -0.03,0.14 -0.14,0.37 -0.27,0.52 -0.32,0.37 -0.75,0.45 -1.45,0.45 -1.06,0 -2.5,-0.94 -2.5,-2.82 0,-0.77 0.15,-1.53 0.73,-2.06 0.35,-0.31 0.8,-0.49 1.49,-0.49 0.73,0 1.35,0.22 1.61,0.49 0.2,0.21 0.3,0.49 0.31,0.73 0,0.11 0.01,0.18 0.08,0.18 0.07,0 0.08,-0.07 0.09,-0.18 0.02,-0.16 0.01,-0.6 0.03,-0.86 0.01,-0.28 0.04,-0.37 0.04,-0.44 0,-0.04 -0.04,-0.08 -0.12,-0.09 -0.24,-0.02 -0.49,-0.1 -0.8,-0.14 -0.36,-0.04 -0.65,-0.08 -1.14,-0.08 -1.18,0 -1.94,0.32 -2.51,0.84 -0.76,0.7 -0.92,1.64 -0.92,2.18 0,0.76 0.2,1.65 0.98,2.33 0.72,0.63 1.63,0.87 2.72,0.87zm7.63 -1.82c0.03,0 0.05,0.01 0.07,0.05l0.54 1.36c0.03,0.08 -0.02,0.15 -0.07,0.15 -0.07,0.01 -0.09,0.03 -0.09,0.07 0,0.05 0.08,0.05 0.21,0.06 0.59,0.02 1.09,0.02 1.34,0.02 0.26,0 0.3,-0.02 0.3,-0.08 0,-0.04 -0.03,-0.07 -0.09,-0.07 -0.08,0 -0.16,0 -0.27,-0.02 -0.12,-0.02 -0.32,-0.11 -0.59,-0.72 -0.44,-1.02 -1.61,-3.75 -1.78,-4.12 -0.07,-0.15 -0.1,-0.22 -0.2,-0.22 -0.07,0 -0.13,0.08 -0.21,0.27l-1.82 4.21c-0.14,0.34 -0.26,0.55 -0.58,0.6 -0.06,0 -0.14,0 -0.2,0 -0.06,0 -0.08,0.03 -0.08,0.07 0,0.06 0.04,0.08 0.12,0.08 0.37,0 0.74,-0.03 0.81,-0.03 0.22,0 0.55,0.03 0.78,0.03 0.07,0 0.11,-0.02 0.11,-0.08 0,-0.04 -0.02,-0.07 -0.1,-0.07l-0.11 0c-0.21,0 -0.27,-0.07 -0.27,-0.19 0,-0.08 0.03,-0.24 0.1,-0.41l0.37 -0.91c0.02,-0.04 0.03,-0.05 0.06,-0.05l1.65 0zm-1.5 -0.37c-0.03,0 -0.04,-0.02 -0.03,-0.05l0.68 -1.68c0,-0.02 0.01,-0.06 0.04,-0.06 0.01,0 0.02,0.04 0.03,0.06l0.66 1.69c0,0.02 0,0.04 -0.04,0.04l-1.34 0zm7.6 -0.41c0,-0.05 0.02,-0.06 0.05,-0.06 0.12,0 0.94,0.01 1.12,0.03 0.21,0.01 0.3,0.15 0.33,0.24 0.03,0.08 0.05,0.16 0.05,0.21 0,0.04 0.02,0.09 0.06,0.09 0.07,0 0.08,-0.09 0.08,-0.15 0,-0.04 0.01,-0.35 0.02,-0.49 0.03,-0.21 0.06,-0.4 0.06,-0.44 0,-0.03 -0.01,-0.06 -0.04,-0.06 -0.04,0 -0.06,0.03 -0.09,0.07 -0.07,0.09 -0.17,0.11 -0.3,0.12 -0.1,0.01 -0.2,0.01 -0.31,0.01l-0.98 0.01c-0.04,0 -0.05,-0.03 -0.05,-0.07l0 -1.63c0,-0.08 0.03,-0.09 0.07,-0.09l1.15 0.02c0.26,0.01 0.4,0.11 0.45,0.21 0.04,0.09 0.04,0.19 0.04,0.25 0,0.08 0.04,0.11 0.08,0.11 0.05,0 0.07,-0.08 0.08,-0.13 0,-0.08 0.02,-0.48 0.03,-0.55 0.02,-0.17 0.05,-0.25 0.05,-0.3 0,-0.03 -0.02,-0.06 -0.05,-0.06 -0.03,0 -0.07,0.03 -0.11,0.04 -0.07,0.01 -0.15,0.02 -0.28,0.03 -0.17,0 -1.71,0 -1.98,0 -0.2,0 -0.64,-0.02 -1,-0.02 -0.11,0 -0.17,0.02 -0.17,0.06 0,0.05 0.06,0.08 0.12,0.08 0.11,0 0.22,0 0.28,0.02 0.22,0.05 0.28,0.13 0.3,0.36 0.01,0.22 0.01,0.41 0.01,1.43l0 1.19c0,0.65 0,1.15 -0.03,1.43 -0.03,0.2 -0.07,0.33 -0.21,0.36 -0.06,0.02 -0.14,0.02 -0.24,0.02 -0.08,0 -0.11,0.04 -0.11,0.07 0,0.06 0.05,0.08 0.14,0.08 0.27,0 0.71,-0.03 0.89,-0.03 0.18,0 0.68,0.03 1.12,0.03 0.1,0 0.15,-0.03 0.15,-0.08 0,-0.03 -0.03,-0.07 -0.12,-0.07 -0.09,0 -0.24,0 -0.34,-0.02 -0.21,-0.03 -0.25,-0.16 -0.28,-0.36 -0.03,-0.28 -0.04,-0.76 -0.04,-1.41l0 -0.55zm5.51 0.53c0,0.62 0,1.15 -0.03,1.43 -0.03,0.2 -0.07,0.33 -0.21,0.36 -0.06,0.02 -0.14,0.02 -0.24,0.02 -0.09,0 -0.11,0.04 -0.11,0.07 0,0.05 0.04,0.08 0.13,0.08 0.14,0 0.32,-0.01 0.48,-0.02 0.17,0 0.32,-0.01 0.4,-0.01 0.21,0 0.47,0.01 0.81,0.02 0.34,0.01 0.76,0.02 1.28,0.02 0.26,0 0.33,0 0.37,-0.17 0.04,-0.14 0.1,-0.6 0.1,-0.75 0,-0.07 -0.01,-0.16 -0.06,-0.16 -0.05,0 -0.07,0.03 -0.08,0.11 -0.05,0.27 -0.13,0.42 -0.3,0.5 -0.19,0.08 -0.48,0.08 -0.66,0.08 -0.72,0 -0.93,-0.1 -0.95,-0.56 0,-0.2 0,-0.77 0,-1l0 -0.54c0,-0.04 0.01,-0.07 0.04,-0.07 0.18,0 0.97,0.02 1.1,0.03 0.26,0.03 0.35,0.13 0.39,0.26 0.01,0.09 0.01,0.18 0.02,0.25 0,0.03 0.02,0.06 0.06,0.06 0.07,0 0.07,-0.1 0.07,-0.15 0,-0.05 0.02,-0.32 0.04,-0.46 0.04,-0.34 0.05,-0.45 0.05,-0.49 0,-0.04 -0.02,-0.07 -0.05,-0.07 -0.04,0 -0.06,0.04 -0.11,0.09 -0.08,0.06 -0.17,0.09 -0.34,0.1 -0.16,0.02 -1.06,0.02 -1.22,0.02 -0.04,0 -0.05,-0.03 -0.05,-0.07l0 -1.67c0,-0.04 0.02,-0.06 0.05,-0.06 0.14,0 0.98,0.01 1.1,0.03 0.34,0.03 0.4,0.13 0.46,0.25 0.03,0.08 0.04,0.19 0.04,0.24 0,0.06 0.01,0.09 0.06,0.09 0.05,0 0.07,-0.08 0.08,-0.11 0.01,-0.08 0.03,-0.37 0.04,-0.45 0.01,-0.3 0.05,-0.38 0.05,-0.43 0,-0.03 -0.01,-0.06 -0.05,-0.06 -0.03,0 -0.07,0.02 -0.11,0.03 -0.05,0.01 -0.16,0.03 -0.29,0.04 -0.13,0 -1.68,0 -1.9,0 -0.2,0 -0.64,-0.02 -1.01,-0.02 -0.1,0 -0.16,0.02 -0.16,0.06 0,0.05 0.05,0.08 0.12,0.08 0.11,0 0.23,0 0.28,0.02 0.22,0.06 0.29,0.13 0.3,0.36 0.01,0.22 0.01,0.41 0.01,1.43l0 1.19zm7.6 0c0,0.62 0,1.15 -0.03,1.43 -0.03,0.2 -0.07,0.33 -0.21,0.36 -0.05,0.02 -0.14,0.02 -0.25,0.02 -0.08,0 -0.11,0.04 -0.11,0.07 0,0.05 0.05,0.08 0.14,0.08 0.28,0 0.75,-0.03 0.91,-0.03 0.2,0 0.66,0.03 1.12,0.03 0.08,0 0.14,-0.03 0.14,-0.08 0,-0.03 -0.03,-0.07 -0.11,-0.07 -0.11,0 -0.26,0 -0.36,-0.02 -0.2,-0.03 -0.24,-0.16 -0.27,-0.35 -0.03,-0.29 -0.04,-0.82 -0.04,-1.44l0 -2.72 0.88 0.01c0.63,0.01 0.81,0.22 0.82,0.39l0.01 0.07c0.01,0.1 0.02,0.14 0.08,0.14 0.04,0 0.06,-0.04 0.06,-0.12 0,-0.17 0.02,-0.67 0.02,-0.81 0,-0.11 -0.01,-0.15 -0.05,-0.15 -0.03,0 -0.09,0.02 -0.2,0.04 -0.1,0.01 -0.25,0.03 -0.47,0.03l-2.83 0c-0.23,0 -0.49,-0.01 -0.69,-0.03 -0.18,-0.03 -0.25,-0.08 -0.31,-0.08 -0.04,0 -0.06,0.04 -0.07,0.12 -0.02,0.06 -0.16,0.71 -0.16,0.82 0,0.07 0.02,0.11 0.07,0.11 0.05,0 0.06,-0.03 0.08,-0.08 0.01,-0.05 0.04,-0.14 0.12,-0.23 0.1,-0.15 0.27,-0.2 0.67,-0.21l1.04 -0.02 0 2.72zm6.19 0c0,0.62 0,1.15 -0.03,1.43 -0.02,0.2 -0.06,0.33 -0.2,0.36 -0.07,0.02 -0.15,0.02 -0.25,0.02 -0.09,0 -0.11,0.04 -0.11,0.07 0,0.05 0.05,0.08 0.13,0.08 0.15,0 0.32,-0.01 0.49,-0.02 0.16,0 0.31,-0.01 0.39,-0.01 0.21,0 0.47,0.01 0.81,0.02 0.34,0.01 0.76,0.02 1.29,0.02 0.26,0 0.32,0 0.37,-0.17 0.04,-0.14 0.09,-0.6 0.09,-0.75 0,-0.07 -0.01,-0.16 -0.06,-0.16 -0.05,0 -0.06,0.03 -0.08,0.11 -0.05,0.27 -0.13,0.42 -0.3,0.5 -0.18,0.08 -0.48,0.08 -0.66,0.08 -0.71,0 -0.93,-0.1 -0.94,-0.56 -0.01,-0.2 0,-0.77 0,-1l0 -0.54c0,-0.04 0.01,-0.07 0.04,-0.07 0.17,0 0.97,0.02 1.09,0.03 0.26,0.03 0.35,0.13 0.39,0.26 0.01,0.09 0.01,0.18 0.02,0.25 0,0.03 0.02,0.06 0.07,0.06 0.06,0 0.07,-0.1 0.07,-0.15 0,-0.05 0.01,-0.32 0.03,-0.46 0.04,-0.34 0.06,-0.45 0.06,-0.49 0,-0.04 -0.03,-0.07 -0.06,-0.07 -0.03,0 -0.06,0.04 -0.11,0.09 -0.07,0.06 -0.17,0.09 -0.33,0.1 -0.16,0.02 -1.07,0.02 -1.22,0.02 -0.04,0 -0.05,-0.03 -0.05,-0.07l0 -1.67c0,-0.04 0.01,-0.06 0.05,-0.06 0.14,0 0.97,0.01 1.09,0.03 0.35,0.03 0.4,0.13 0.46,0.25 0.04,0.08 0.05,0.19 0.05,0.24 0,0.06 0,0.09 0.05,0.09 0.06,0 0.07,-0.08 0.08,-0.11 0.02,-0.08 0.03,-0.37 0.04,-0.45 0.02,-0.3 0.06,-0.38 0.06,-0.43 0,-0.03 -0.01,-0.06 -0.05,-0.06 -0.03,0 -0.07,0.02 -0.11,0.03 -0.06,0.01 -0.17,0.03 -0.3,0.04 -0.13,0 -1.68,0 -1.9,0 -0.2,0 -0.64,-0.02 -1,-0.02 -0.11,0 -0.16,0.02 -0.16,0.06 0,0.05 0.05,0.08 0.12,0.08 0.1,0 0.22,0 0.27,0.02 0.23,0.06 0.29,0.13 0.31,0.36 0,0.22 0,0.41 0,1.43l0 1.19zm6.52 0c0,0.62 0,1.15 -0.04,1.43 -0.02,0.2 -0.06,0.33 -0.2,0.36 -0.07,0.02 -0.14,0.02 -0.25,0.02 -0.08,0 -0.11,0.04 -0.11,0.07 0,0.05 0.05,0.08 0.14,0.08 0.27,0 0.72,-0.03 0.85,-0.03 0.11,0 0.68,0.03 1.09,0.03 0.08,0 0.14,-0.03 0.14,-0.08 0,-0.03 -0.03,-0.07 -0.09,-0.07 -0.08,0 -0.23,0 -0.34,-0.02 -0.21,-0.03 -0.24,-0.16 -0.27,-0.36 -0.03,-0.28 -0.04,-0.81 -0.04,-1.43l0 -0.1c0,-0.04 0.03,-0.05 0.06,-0.05l0.62 0.01c0.05,0 0.09,0.01 0.13,0.05 0.09,0.1 0.38,0.56 0.66,0.92 0.39,0.52 0.65,0.84 0.95,0.99 0.18,0.1 0.37,0.14 0.76,0.14l0.67 0c0.08,0 0.13,-0.02 0.13,-0.08 0,-0.03 -0.03,-0.07 -0.09,-0.07 -0.05,0 -0.09,0 -0.16,-0.01 -0.11,-0.03 -0.36,-0.06 -0.75,-0.45 -0.42,-0.42 -0.91,-1.03 -1.53,-1.79 0.68,-0.54 0.97,-0.99 0.97,-1.49 0,-0.45 -0.29,-0.79 -0.49,-0.92 -0.37,-0.25 -0.88,-0.29 -1.32,-0.29 -0.22,0 -0.85,0.02 -1.09,0.02 -0.14,0 -0.59,-0.02 -0.95,-0.02 -0.1,0 -0.16,0.02 -0.16,0.06 0,0.05 0.05,0.08 0.12,0.08 0.1,0 0.22,0 0.28,0.02 0.22,0.06 0.28,0.13 0.3,0.36 0.01,0.22 0.01,0.41 0.01,1.43l0 1.19zm0.88 -2.67c0,-0.06 0.02,-0.08 0.07,-0.1 0.07,-0.01 0.23,-0.02 0.41,-0.02 0.41,0 1.06,0.25 1.06,1.2 0,0.55 -0.24,0.84 -0.45,0.99 -0.12,0.09 -0.22,0.11 -0.49,0.11 -0.18,0 -0.38,-0.01 -0.53,-0.06 -0.05,-0.02 -0.07,-0.05 -0.07,-0.12l0 -2z"/>
    <path class="fil1" d="M172.13 96.91c0,0.65 0,1.19 -0.03,1.46 -0.03,0.2 -0.07,0.3 -0.21,0.33 -0.06,0.02 -0.14,0.02 -0.24,0.02 -0.09,0 -0.12,0.04 -0.12,0.07 0,0.05 0.05,0.08 0.14,0.08 0.28,0 0.75,-0.03 0.91,-0.03 0.19,0 0.67,0.03 1.13,0.03 0.07,0 0.13,-0.03 0.13,-0.08 0,-0.03 -0.03,-0.07 -0.11,-0.07 -0.1,0 -0.26,0 -0.36,-0.02 -0.2,-0.03 -0.25,-0.14 -0.27,-0.32 -0.04,-0.28 -0.04,-0.82 -0.04,-1.47l0 -1.19c0,-1.02 0,-1.21 0.02,-1.43 0.02,-0.23 0.07,-0.33 0.26,-0.36 0.08,-0.02 0.14,-0.02 0.21,-0.02 0.07,0 0.11,-0.02 0.11,-0.08 0,-0.04 -0.06,-0.06 -0.14,-0.06 -0.27,0 -0.73,0.02 -0.9,0.02 -0.2,0 -0.67,-0.02 -0.93,-0.02 -0.12,0 -0.17,0.02 -0.17,0.06 0,0.06 0.04,0.08 0.11,0.08 0.09,0 0.17,0 0.25,0.03 0.15,0.04 0.22,0.12 0.24,0.35 0.01,0.22 0.01,0.41 0.01,1.43l0 1.19zm7.57 -0.07c0.04,0 0.07,0.02 0.08,0.06l0.64 1.63c0.04,0.1 -0.02,0.17 -0.08,0.19 -0.07,0 -0.11,0.02 -0.11,0.07 0,0.05 0.1,0.05 0.24,0.06 0.64,0.02 1.21,0.02 1.5,0.02 0.29,0 0.36,-0.02 0.36,-0.08 0,-0.06 -0.04,-0.07 -0.1,-0.07 -0.09,0 -0.21,0 -0.33,-0.03 -0.17,-0.04 -0.4,-0.15 -0.7,-0.86 -0.51,-1.21 -1.78,-4.38 -1.97,-4.81 -0.07,-0.18 -0.12,-0.26 -0.19,-0.26 -0.08,0 -0.13,0.09 -0.23,0.32l-1.98 4.91c-0.16,0.4 -0.31,0.67 -0.68,0.72 -0.06,0.01 -0.17,0.01 -0.24,0.01 -0.07,0 -0.1,0.02 -0.1,0.07 0,0.06 0.05,0.08 0.15,0.08 0.41,0 0.85,-0.03 0.94,-0.03 0.24,0 0.58,0.03 0.84,0.03 0.08,0 0.13,-0.02 0.13,-0.08 0,-0.05 -0.02,-0.07 -0.12,-0.07l-0.12 0c-0.24,0 -0.31,-0.1 -0.31,-0.24 0,-0.1 0.04,-0.29 0.12,-0.49l0.42 -1.08c0.02,-0.05 0.04,-0.07 0.08,-0.07l1.76 0zm-1.61 -0.39c-0.03,0 -0.04,-0.03 -0.03,-0.06l0.73 -1.94c0.01,-0.03 0.02,-0.07 0.05,-0.07 0.02,0 0.03,0.04 0.04,0.07l0.71 1.95c0.01,0.02 0,0.05 -0.04,0.05l-1.46 0z"/>
   </g>
  </g>
 </g>
</svg>
